<svg width="172" height="48" viewBox="0 0 172 48" fill="none" xmlns="http://www.w3.org/2000/svg">
<path d="M31.1341 35.435C31.6675 37.4525 32.5281 38.2326 34.0491 38.2326C35.6259 38.2326 36.4528 37.2853 36.4528 35.435V1.08303H46.33V35.435C46.33 40.2772 45.7018 42.3752 43.2467 44.831C41.4773 46.6007 38.2137 47.9687 34.0928 47.9687C30.7635 47.9687 27.5777 46.8668 25.546 44.8313C23.7647 43.0467 22.7863 41.2137 21.2572 35.4347L15.1963 12.5337C14.6625 10.5162 13.8022 9.73644 12.2812 9.73644C10.7041 9.73644 9.87723 10.6834 9.87723 12.5337V46.8861H0V12.5337C0 7.69188 0.628496 5.59351 3.08359 3.13774C4.85231 1.36868 8.11629 0 12.2376 0C15.5669 0 18.7527 1.10232 20.7844 3.1374C22.5656 4.92203 23.5441 6.75506 25.0732 12.534L31.1341 35.435Z" fill="url(#paint0_linear)"/>
<path d="M161.79 46.8857L150.383 11.2012C150.258 10.8073 150.139 10.4729 149.956 10.2499C149.643 9.86843 149.209 9.66807 148.626 9.66807C148.042 9.66807 147.609 9.86843 147.295 10.2499C147.113 10.4726 146.994 10.8069 146.868 11.2012L135.461 46.8861H125.251L137.711 7.90476C138.36 5.87408 139.288 4.15003 140.466 3.00135C142.487 1.03125 144.868 0 148.626 0C152.384 0 154.765 1.03125 156.785 3.00101C157.963 4.15003 158.891 5.87374 159.54 7.90442L172 46.8857H161.79Z" fill="url(#paint1_linear)"/>
<path d="M123.429 43.0315C120.935 45.5113 117.779 46.8861 111.308 46.8861L81.6073 46.8857L70.2003 11.2009C70.0747 10.8066 69.9559 10.4722 69.7732 10.2495C69.4594 9.86809 69.0259 9.66773 68.4427 9.66773C67.8596 9.66773 67.4257 9.86809 67.1123 10.2495C66.9295 10.4726 66.8108 10.8069 66.6849 11.2009L55.2778 46.8857H45.0683L57.5282 7.90442C58.1773 5.87374 59.105 4.15003 60.2828 3.00101C62.3026 1.03125 64.6843 0 68.4421 0C72.1998 0 74.5811 1.03125 76.602 3.00135C77.7795 4.15003 78.7075 5.87408 79.3566 7.90476L88.715 37.1835H113.115C115.039 37.1835 116.041 36.8525 116.776 36.1312C117.603 35.3186 117.894 34.129 117.894 32.9244C117.894 31.7592 117.576 30.7709 116.899 30.1059C115.913 29.1365 114.666 28.7592 111.538 28.7592L103.352 28.7585C97.5075 28.7585 93.9237 27.8538 91.0378 24.9841C88.8308 22.79 87.3812 19.1229 87.3812 15.1628C87.3812 10.6817 88.7015 7.68071 91.4605 4.9376C93.9545 2.45814 97.1105 1.08303 103.582 1.08303H125.433V10.7856H101.775C99.8503 10.7856 98.8488 11.1166 98.114 11.8379C97.2862 12.6505 96.9961 13.8401 96.9961 15.0446C96.9961 16.2099 97.3136 17.1985 97.9908 17.8632C98.9771 18.8322 100.224 19.2102 103.351 19.2102L111.538 19.2106C117.382 19.2106 120.966 20.1149 123.852 22.9846C126.059 25.1791 127.508 28.8465 127.508 32.806C127.508 37.287 126.188 40.2884 123.429 43.0315Z" fill="url(#paint2_linear)"/>
<defs>
<linearGradient id="paint0_linear" x1="86" y1="0" x2="86" y2="90" gradientUnits="userSpaceOnUse">
<stop stop-color="#0B65E5"/>
<stop offset="1" stop-color="#001449"/>
</linearGradient>
<linearGradient id="paint1_linear" x1="86" y1="0" x2="86" y2="90" gradientUnits="userSpaceOnUse">
<stop stop-color="#0B65E5"/>
<stop offset="1" stop-color="#001449"/>
</linearGradient>
<linearGradient id="paint2_linear" x1="86" y1="0" x2="86" y2="90" gradientUnits="userSpaceOnUse">
<stop stop-color="#0B65E5"/>
<stop offset="1" stop-color="#001449"/>
</linearGradient>
</defs>
</svg>
